<?xml version="1.0"?>
<svg xmlns="http://www.w3.org/2000/svg" xmlns:xlink="http://www.w3.org/1999/xlink" version="1.1" id="Capa_1" x="0px" y="0px" viewBox="0 0 512 512" style="enable-background:new 0 0 512 512;" xml:space="preserve" width="512px" height="512px" class=""><g><path style="fill:#F9DE69" d="M368.897,102.114H98.847c-25.958,0-46.999,21.043-46.999,46.999v250.776  c0,34.264,27.777,62.04,62.04,62.04h239.967c34.264,0,62.04-27.777,62.04-62.04V149.114  C415.896,123.156,394.854,102.114,368.897,102.114z" data-original="#FFC66C" class="" data-old_color="#FFC66C"/><rect x="51.847" y="149.11" style="fill:#C9F3FF;" width="364.049" height="179.484" data-original="#C9F3FF"/><g>
	<path style="fill:#898998;" d="M334.219,501.998L334.219,501.998c-13.257,0-24.003-10.746-24.003-24.003V461.93h48.007v16.065   C358.222,491.252,347.475,501.998,334.219,501.998z" data-original="#898998"/>
	<path style="fill:#898998;" d="M133.525,501.998L133.525,501.998c-13.257,0-24.003-10.746-24.003-24.003V461.93h48.006v16.065   C157.528,491.252,146.782,501.998,133.525,501.998z" data-original="#898998"/>
</g><g>
	<circle style="fill:#FFFFFF;" cx="105.854" cy="390.012" r="21.163" data-original="#FFFFFF"/>
	<circle style="fill:#FFFFFF;" cx="361.889" cy="390.012" r="21.163" data-original="#FFFFFF"/>
</g><path d="M415.896,139.112c-5.523,0-10.001,4.479-10.001,10.001v169.484H256.6l112.298-112.298c3.906-3.906,3.906-10.238,0-14.145  c-3.907-3.905-10.237-3.905-14.145,0l-110.88,110.88V159.115h54.134c5.523,0,10.001-4.479,10.001-10.001  c0-5.523-4.479-10.001-10.001-10.001H63.234c4.375-15.556,18.679-26.997,35.614-26.997H259.83c5.523,0,10.001-4.479,10.001-10.001  s-4.479-10.001-10.001-10.001H98.846c-31.43,0-57.001,25.57-57.001,57.001v250.776c0,34.806,24.811,63.922,57.675,70.6v7.506  c0,18.751,15.254,34.005,34.005,34.005s34.005-15.254,34.005-34.005v-6.064h132.684v6.064c0,18.751,15.254,34.005,34.005,34.005  c18.75,0,34.005-15.254,34.005-34.005v-7.506c32.863-6.678,57.675-35.794,57.675-70.6V149.114  C425.897,143.59,421.42,139.112,415.896,139.112z M223.87,318.597H79.158l78.336-78.336c3.906-3.906,3.906-10.238,0-14.145  c-3.907-3.905-10.237-3.905-14.145,0l-81.5,81.5V159.115H223.87V318.597z M147.527,477.995c0,7.721-6.281,14.002-14.002,14.002  s-14.002-6.281-14.002-14.002v-6.064h28.004V477.995z M348.22,477.995c0,7.721-6.281,14.002-14.002,14.002  c-7.721,0-14.002-6.281-14.002-14.002v-6.064h28.004V477.995z M353.856,451.928h-43.641H157.528h-43.641  c-28.694,0-52.039-23.345-52.039-52.039V338.6h344.046v61.289C405.895,428.583,382.55,451.928,353.856,451.928z" data-original="#000000" class="active-path"/><path d="M290.212,380.011H177.531c-5.523,0-10.001,4.479-10.001,10.001c0,5.523,4.479,10.001,10.001,10.001h112.681  c5.523,0,10.001-4.479,10.001-10.001C300.214,384.489,295.736,380.011,290.212,380.011z" data-original="#000000" class="active-path"/><path d="M180.759,212.848c2.63,0,5.211-1.06,7.071-2.92c1.86-1.87,2.93-4.44,2.93-7.071c0-2.64-1.069-5.211-2.93-7.081  c-1.86-1.859-4.441-2.92-7.071-2.92s-5.211,1.061-7.07,2.92c-1.86,1.87-2.931,4.441-2.931,7.081c0,2.631,1.07,5.201,2.931,7.071  C175.549,211.789,178.129,212.848,180.759,212.848z" data-original="#000000" class="active-path"/><path d="M394.643,126.144c2.56,0,5.119-0.977,7.072-2.929c3.906-3.906,3.906-10.238,0-14.145c-21.959-21.959-57.69-21.959-79.654,0  c-3.906,3.906-3.906,10.237,0,14.145c3.907,3.904,10.237,3.906,14.145,0c14.161-14.16,37.205-14.162,51.364,0  C389.525,125.166,392.084,126.144,394.643,126.144z" data-original="#000000" class="active-path"/><path d="M361.889,46.252c-27.418,0-53.194,10.676-72.581,30.064c-3.906,3.906-3.906,10.238,0,14.145  c3.907,3.905,10.237,3.905,14.145,0c15.608-15.609,36.362-24.205,58.437-24.205c22.075,0,42.828,8.596,58.437,24.205  c1.953,1.952,4.513,2.929,7.072,2.929s5.119-0.977,7.072-2.929c3.906-3.906,3.906-10.238,0-14.145  C415.083,56.928,389.307,46.252,361.889,46.252z" data-original="#000000" class="active-path"/><path d="M467.224,43.561c-58.082-58.082-152.589-58.082-210.671,0c-3.906,3.906-3.906,10.238,0,14.145  c3.907,3.905,10.237,3.905,14.145,0c50.282-50.284,132.1-50.284,182.382,0c1.953,1.952,4.513,2.929,7.072,2.929  c2.559,0,5.119-0.977,7.072-2.929C471.131,53.8,471.131,47.467,467.224,43.561z" data-original="#000000" class="active-path"/><path d="M354.813,142.04c-1.86,1.87-2.93,4.441-2.93,7.071c0,2.63,1.069,5.211,2.93,7.07c1.87,1.86,4.441,2.931,7.081,2.931  c2.63,0,5.201-1.07,7.061-2.931c1.87-1.859,2.931-4.431,2.931-7.07c0-2.63-1.061-5.211-2.931-7.071  c-1.859-1.86-4.431-2.93-7.061-2.93C359.253,139.109,356.683,140.178,354.813,142.04z" data-original="#000000" class="active-path"/><path d="M105.854,358.846c-17.186,0-31.167,13.981-31.167,31.166c0,17.186,13.981,31.167,31.167,31.167s31.167-13.981,31.167-31.167  C137.022,372.827,123.041,358.846,105.854,358.846z M105.854,401.177c-6.156,0-11.165-5.009-11.165-11.165  c0-6.156,5.009-11.163,11.165-11.163s11.165,5.008,11.165,11.163C117.019,396.168,112.01,401.177,105.854,401.177z" data-original="#000000" class="active-path"/><path d="M361.889,358.846c-17.186,0-31.167,13.981-31.167,31.166c0,17.186,13.981,31.167,31.167,31.167s31.167-13.981,31.167-31.167  C393.056,372.827,379.075,358.846,361.889,358.846z M361.889,401.177c-6.156,0-11.165-5.009-11.165-11.165  c0-6.156,5.009-11.163,11.165-11.163s11.164,5.008,11.164,11.163C373.053,396.168,368.045,401.177,361.889,401.177z" data-original="#000000" class="active-path"/></g> </svg>
