<?xml version="1.0"?>
<svg xmlns="http://www.w3.org/2000/svg" height="512px" viewBox="-56 0 464 464.03428" width="512px" class=""><g><path d="m352.015625 176.035156c.019531-91.996094-70.8125-168.484375-162.539063-175.519531-91.722656-7.035156-173.394531 57.753906-187.40625 148.675781-14.011718 90.921875 44.359376 177.296875 133.945313 198.203125l40 116.640625 40-116.640625c79.585937-18.671875 135.886719-89.613281 136-171.359375zm0 0" fill="#ad2943" data-original="#AD2943" class="" data-old_color="#ad2943" style="fill:#EE3446"/><path d="m320.015625 175.691406c0 79.527344-64.46875 144-144 144-79.527344 0-144-64.472656-144-144 0-79.53125 64.472656-144 144-144 79.53125 0 144 64.46875 144 144zm0 0" fill="#ee3446" data-original="#EE3446" class="" data-old_color="#ee3446" style="fill:#FECF2C"/><path d="m128.015625 192.035156h96v32h-96zm0 0" fill="#005e9c" data-original="#005E9C" class="" data-old_color="#005e9c" style="fill:#FECF2C"/><path d="m256.015625 160.035156v32h-160v-32zm0 0" fill="#005e9c" data-original="#005E9C" class="" data-old_color="#005e9c" style="fill:#FECF2C"/><path d="m224.015625 192.035156h32v32h-32zm0 0" fill="#fecf2c" data-original="#FECF2C"/><path d="m96.015625 192.035156h32v32h-32zm0 0" fill="#fecf2c" data-original="#FECF2C"/><path d="m256.015625 112.035156v48h-80v-64h64c8.828125.027344 15.976563 7.171875 16 16zm0 0" fill="#168fba" data-original="#168FBA" class="" data-old_color="#168fba" style="fill:#FECF2C"/><path d="m176.015625 96.035156v64h-80v-40c0-14.722656 5.523437-22.082031 12.800781-23.679687 1.050782-.230469 2.125-.335938 3.199219-.320313zm0 0" fill="#168fba" data-original="#168FBA" class="" data-old_color="#168fba" style="fill:#FECF2C"/><g fill="#4e4e4e"><path d="m240.015625 88.035156h-128c-1.652344-.019531-3.304687.148438-4.917969.503906-5.738281 1.269532-19.082031 6.863282-19.082031 31.496094v136h16v-24h144v24h16v-144c0-13.253906-10.742187-24-24-24zm8 24v40h-64v-48h56c4.417969 0 8 3.582032 8 8zm0 72h-144v-16h144zm-32 16v16h-80v-16zm16 0h16v16h-16zm-128-80c0-9.039062 2.402344-14.96875 6.601563-15.882812.460937-.089844.929687-.132813 1.398437-.117188h56v48h-64zm0 80h16v16h-16zm0 0" data-original="#000000" class="active-path"/><path d="m216.015625 120.035156h16v16h-16zm0 0" data-original="#000000" class="active-path"/><path d="m136.015625 120.035156h16v16h-16zm0 0" data-original="#000000" class="active-path"/></g></g> </svg>
